# xmcd
#
# Track frame offsets:
#	150
#	18621
#	34109
#	44405
#	58935
#	70303
#	82087
#	98406
#	110441
#	141685
#	153427
#	172527
#	187297
#	204280
#	220710
#	239362
#	262401
#	282552
#	298614
#
# Disc length: 4216 seconds
#
# Revision: 0
# Processed by: cddbd v1.5.2PL0 Copyright (c) Steve Scherf et al.
# Submitted via: EasyCDDAExtractor 12.0.7.1
#
DISCID=29107613
DTITLE=Various Artist - 내 생애 최고의 팝송 CD2
DYEAR=1900
DGENRE=POP
TTITLE0=Cher - Just Like Jesse James
TTITLE1=The Buggles - Vide Killed The Radio Star
TTITLE2=Connie Francis - Stupid Cupid
TTITLE3=The Stylistics - Can't Help Falling In Love
TTITLE4=Jack Jones - Wives and Lovers
TTITLE5=The Temptation - Get Ready
TTITLE6=Diana Ross - Upside Down
TTITLE7=Four Tops - Standing In The Shadows Of Love
TTITLE8=Barclay James Harvest - Poor Man's Moody Blues
TTITLE9=The Supremes - Baby Love
TTITLE10=Kim Wilde - You Keep Me Hangin On
TTITLE11=Aqua - Barbie Girl
TTITLE12=Tiffany - I Think We're Alone Now
TTITLE13=Crystal Waters - Gypsy Woman
TTITLE14=Billie Myers - Kiss The Rain
TTITLE15=Grace Jones - Private Life
TTITLE16=Styx - Babe
TTITLE17=Lynyrd Skynrd - Free Bird
TTITLE18=Rockwell - Somebody's Watching Me
EXTD=
EXTT0=
EXTT1=
EXTT2=
EXTT3=
EXTT4=
EXTT5=
EXTT6=
EXTT7=
EXTT8=
EXTT9=
EXTT10=
EXTT11=
EXTT12=
EXTT13=
EXTT14=
EXTT15=
EXTT16=
EXTT17=
EXTT18=
PLAYORDER=
